<svg xmlns="http://www.w3.org/2000/svg" width="960" height="640" viewBox="0 0 960 640" role="img" aria-label="MOD PET">
  <defs>
    <radialGradient id="orb" cx="35%" cy="22%" r="70%"><stop offset="0" stop-color="#FF4DB8" stop-opacity=".85"/><stop offset=".46" stop-color="#8B5CF6" stop-opacity=".34"/><stop offset="1" stop-color="#05050A" stop-opacity="0"/></radialGradient>
    <linearGradient id="card" x1="0" y1="0" x2="1" y2="1"><stop offset="0" stop-color="#1B1B27" stop-opacity=".96"/><stop offset=".55" stop-color="#0B0B12" stop-opacity=".94"/><stop offset="1" stop-color="#05050A" stop-opacity=".98"/></linearGradient>
    <linearGradient id="edge" x1="0" y1="0" x2="1" y2="1"><stop offset="0" stop-color="#FF4DB8"/><stop offset=".5" stop-color="#F5C542"/><stop offset="1" stop-color="#8B5CF6"/></linearGradient>
    <filter id="glow" x="-50%" y="-50%" width="200%" height="200%"><feGaussianBlur stdDeviation="12" result="b"/><feColorMatrix in="b" type="matrix" values="0 0 0 0 0.1 0 0 0 0 1 0 0 0 0 .75 0 0 0 .65 0"/><feMerge><feMergeNode/><feMergeNode in="SourceGraphic"/></feMerge></filter>
    <filter id="soft"><feDropShadow dx="0" dy="22" stdDeviation="24" flood-color="#000" flood-opacity=".55"/></filter>
    <pattern id="grid" width="54" height="54" patternUnits="userSpaceOnUse"><path d="M54 0H0V54" fill="none" stroke="white" stroke-opacity=".045"/></pattern>
  </defs>
  <rect width="960" height="640" fill="#05050A"/>
  <rect width="960" height="640" fill="url(#grid)"/>
  <circle cx="260" cy="150" r="360" fill="url(#orb)"/>
  <circle cx="790" cy="540" r="250" fill="#8B5CF6" opacity=".14"/>
  <g opacity=".6">
    <circle cx="120" cy="98" r="2" fill="#fff"/><circle cx="220" cy="530" r="2.6" fill="#fff"/><circle cx="740" cy="120" r="2" fill="#fff"/><circle cx="850" cy="310" r="1.8" fill="#fff"/><circle cx="540" cy="80" r="1.6" fill="#fff"/><circle cx="430" cy="575" r="2" fill="#fff"/>
  </g>
  <g transform="translate(122 92) rotate(-4 360 230)" filter="url(#soft)">
    <rect x="0" y="0" width="716" height="456" rx="42" fill="url(#card)" stroke="url(#edge)" stroke-width="3"/>
    <rect x="22" y="22" width="672" height="412" rx="30" fill="none" stroke="white" stroke-opacity=".08"/>
    <path d="M38 342C210 262 298 390 462 286C568 218 620 232 680 206V434H38Z" fill="#FF4DB8" opacity=".08"/>
    <g transform="translate(392 94)" filter="url(#glow)">
      <circle cx="118" cy="118" r="112" fill="#FF4DB8" opacity=".14"/>
      <circle cx="118" cy="118" r="78" fill="none" stroke="url(#edge)" stroke-width="9" opacity=".9"/>
      <circle cx="118" cy="118" r="50" fill="#8B5CF6" opacity=".18"/>
      <text x="118" y="148" text-anchor="middle" font-size="98" font-family="Arial, sans-serif" font-weight="900" fill="#F7F7FB">🐾</text>
    </g>
    <text x="58" y="124" font-family="Arial Black, Impact, sans-serif" font-size="54" fill="#F7F7FB" letter-spacing="2">MOD</text>
    <text x="58" y="184" font-family="Arial Black, Impact, sans-serif" font-size="42" fill="#FF4DB8" letter-spacing="2">PET</text>
    <text x="58" y="232" font-family="Arial, sans-serif" font-size="21" fill="#A1A1AA">Premium Gravity Visual • KNOX Luxury</text>
    <g transform="translate(58 305)">
      <rect width="196" height="46" rx="23" fill="url(#edge)" opacity=".95"/>
      <text x="98" y="30" text-anchor="middle" font-size="16" font-family="Arial Black, Arial" fill="#06060A">IN STOCK</text>
    </g>
    <path d="M0 70V42C0 18 18 0 42 0h42" fill="none" stroke="#FF4DB8" stroke-width="5" stroke-linecap="round" opacity=".9"/>
    <path d="M716 386v28c0 24-18 42-42 42h-42" fill="none" stroke="#8B5CF6" stroke-width="5" stroke-linecap="round" opacity=".9"/>
  </g>
</svg>